<?xml version="1.0" standalone="no"?>
<!DOCTYPE svg PUBLIC "-//W3C//DTD SVG 20010904//EN"
 "http://www.w3.org/TR/2001/REC-SVG-20010904/DTD/svg10.dtd">
<svg version="1.0" xmlns="http://www.w3.org/2000/svg"
 width="544.000000pt" height="472.000000pt" viewBox="0 0 544.000000 472.000000"
 preserveAspectRatio="xMidYMid meet">

<g transform="translate(0.000000,472.000000) scale(0.100000,-0.100000)"
fill="#000000" stroke="none">
<path d="M2844 4432 c3 -4 -1 -77 -8 -160 -10 -129 -10 -155 2 -164 29 -24 46
5 58 96 13 98 27 123 50 91 24 -33 27 -63 13 -133 l-14 -67 -69 -2 c-106 -4
-92 -13 20 -13 65 0 106 4 116 13 23 18 33 149 13 186 -16 32 -33 41 -76 41
-27 0 -29 3 -29 38 0 48 -23 82 -56 82 -14 0 -23 -4 -20 -8z"/>
<path d="M2020 4350 c0 -5 -8 -10 -17 -10 -20 0 -66 -53 -77 -88 -10 -30 36
-74 102 -98 26 -10 53 -22 60 -27 18 -14 15 -64 -5 -76 -16 -9 -16 -10 4 -11
37 0 53 11 69 48 11 28 12 42 4 63 -12 27 -17 31 -113 73 -52 23 -58 28 -52
48 4 13 8 27 9 33 2 20 32 34 74 35 26 0 41 4 37 10 -3 6 -26 10 -51 10 -24 0
-44 -4 -44 -10z"/>
<path d="M2525 4323 c-9 -7 -11 -86 -6 -185 1 -22 46 -34 66 -18 12 10 12 16
4 26 -14 18 -13 122 2 140 9 11 16 11 33 2 11 -6 24 -16 28 -22 12 -17 9 -121
-3 -133 -7 -7 1 -12 27 -16 20 -4 41 -4 47 0 15 9 3 171 -14 188 -16 17 -167
31 -184 18z"/>
<path d="M2336 4295 c12 -18 15 -39 12 -70 -5 -42 3 -58 17 -35 3 6 20 10 36
10 29 0 30 1 24 33 -8 37 -22 57 -40 57 -7 0 -18 7 -25 15 -7 8 -19 15 -26 15
-12 0 -11 -5 2 -25z"/>
<path d="M2752 4290 c0 -14 2 -19 5 -12 2 6 2 18 0 25 -3 6 -5 1 -5 -13z"/>
<path d="M2044 4284 c-17 -14 -17 -15 -1 -10 10 3 32 6 48 6 18 0 28 4 24 10
-9 15 -49 12 -71 -6z"/>
<path d="M2263 4288 c-20 -25 -34 -87 -28 -121 4 -18 17 -47 29 -62 22 -28 25
-28 72 -19 33 6 50 14 52 26 3 14 -3 16 -31 11 -19 -3 -37 -1 -41 5 -3 5 -8
42 -11 81 -6 90 -17 111 -42 79z"/>
<path d="M3066 4267 c3 -10 9 -15 12 -12 3 3 0 11 -7 18 -10 9 -11 8 -5 -6z"/>
<path d="M3190 4267 c-45 -16 -80 -68 -80 -120 0 -33 6 -46 36 -73 38 -36 70
-42 121 -23 53 20 73 48 73 101 0 65 -11 83 -66 108 -26 11 -47 20 -48 19 0 0
-17 -5 -36 -12z m68 -39 c7 -7 12 -35 12 -63 0 -41 -5 -56 -24 -74 -20 -19
-27 -21 -46 -11 -19 10 -22 18 -18 59 5 49 32 101 52 101 7 0 17 -5 24 -12z"/>
<path d="M2095 4230 c3 -5 11 -10 16 -10 6 0 7 5 4 10 -3 6 -11 10 -16 10 -6
0 -7 -4 -4 -10z"/>
<path d="M3479 4193 c-22 -3 -31 -15 -53 -71 -35 -87 -37 -164 -5 -159 30 5
46 26 52 67 3 21 15 53 27 71 21 28 27 31 61 26 22 -3 41 -2 43 2 9 14 -11 31
-38 33 -15 1 -32 10 -37 20 -5 10 -13 17 -17 17 -4 -1 -19 -4 -33 -6z"/>
<path d="M2431 4145 c-1 -11 -5 -31 -7 -45 -3 -18 -2 -22 6 -14 7 7 10 27 7
45 -2 19 -5 25 -6 14z"/>
<path d="M1534 4073 c-16 -16 -16 -18 -1 -21 9 -2 21 -19 28 -39 15 -46 48
-104 68 -120 8 -7 35 -12 60 -12 25 1 39 3 30 6 -8 2 -28 29 -44 61 -28 54
-99 142 -116 142 -4 0 -15 -8 -25 -17z"/>
<path d="M2693 4083 c9 -2 25 -2 35 0 9 3 1 5 -18 5 -19 0 -27 -2 -17 -5z"/>
<path d="M3078 4083 c7 -3 16 -2 19 1 4 3 -2 6 -13 5 -11 0 -14 -3 -6 -6z"/>
<path d="M3580 4083 c24 -2 51 -10 59 -16 11 -10 13 -9 9 3 -3 11 -20 15 -59
16 -47 1 -48 1 -9 -3z"/>
<path d="M3690 4065 c6 -8 23 -15 38 -17 31 -4 41 -31 19 -56 -8 -9 -18 -28
-22 -42 -4 -14 -13 -32 -20 -40 -21 -23 -7 -70 20 -70 28 0 47 22 74 84 23 54
28 118 9 133 -7 6 -39 13 -71 16 -49 5 -56 3 -47 -8z"/>
<path d="M1970 4060 c0 -6 11 -16 25 -22 15 -7 24 -17 21 -25 -4 -10 11 -13
67 -11 71 2 71 2 14 5 -41 3 -57 8 -54 16 20 49 21 47 -27 47 -25 0 -46 -5
-46 -10z"/>
<path d="M2313 4043 c15 -2 39 -2 55 0 15 2 2 4 -28 4 -30 0 -43 -2 -27 -4z"/>
<path d="M3008 4043 c7 -3 16 -2 19 1 4 3 -2 6 -13 5 -11 0 -14 -3 -6 -6z"/>
<path d="M3308 4043 c6 -2 18 -2 25 0 6 3 1 5 -13 5 -14 0 -19 -2 -12 -5z"/>
<path d="M1481 4011 c-33 -31 -40 -51 -18 -51 13 0 46 32 61 57 14 25 -14 21
-43 -6z"/>
<path d="M1660 4033 c0 -4 5 -15 10 -23 8 -13 10 -13 10 2 0 9 -4 20 -10 23
-5 3 -10 3 -10 -2z"/>
<path d="M3355 4030 c3 -5 8 -10 11 -10 2 0 4 5 4 10 0 6 -5 10 -11 10 -5 0
-7 -4 -4 -10z"/>
<path d="M3507 4021 c-4 -17 -3 -21 5 -13 5 5 8 16 6 23 -3 8 -7 3 -11 -10z"/>
<path d="M1967 4009 c7 -7 15 -10 18 -7 3 3 -2 9 -12 12 -14 6 -15 5 -6 -5z"/>
<path d="M3168 4008 c5 -5 16 -8 23 -6 8 3 3 7 -10 11 -17 4 -21 3 -13 -5z"/>
<path d="M3255 4010 c-16 -7 -17 -9 -3 -9 9 -1 20 4 23 9 7 11 7 11 -20 0z"/>
<path d="M3617 3992 c-38 -45 -20 -95 36 -100 31 -2 32 0 15 29 -12 18 -9 23
22 49 19 16 31 30 25 31 -64 8 -84 6 -98 -9z"/>
<path d="M3565 3989 c-4 -6 -5 -12 -2 -15 2 -3 7 2 10 11 7 17 1 20 -8 4z"/>
<path d="M3832 3950 c0 -14 2 -19 5 -12 2 6 2 18 0 25 -3 6 -5 1 -5 -13z"/>
<path d="M1327 3940 c-6 -22 16 -27 42 -11 11 7 10 11 -7 20 -27 15 -29 14
-35 -9z"/>
<path d="M1517 3938 c3 -13 10 -29 16 -36 8 -10 4 -12 -21 -7 -37 6 -50 -9
-26 -32 12 -13 37 -17 103 -19 47 -1 74 0 59 3 -14 2 -32 11 -38 19 -7 8 -18
14 -26 14 -15 0 -37 34 -27 43 8 9 -17 37 -32 37 -9 0 -11 -8 -8 -22z"/>
<path d="M1271 3889 c-17 -16 -31 -38 -31 -48 0 -23 46 -41 107 -41 49 0 69
-23 40 -45 -22 -16 -21 -25 2 -25 35 0 53 11 41 25 -9 10 -3 16 25 26 19 7 34
18 32 24 -2 5 -31 25 -65 42 -47 25 -62 29 -62 18 0 -8 -9 -15 -21 -15 -11 0
-18 4 -14 9 3 5 0 13 -6 17 -7 4 -8 9 -1 13 6 4 5 10 -3 18 -10 9 -20 6 -44
-18z"/>
<path d="M1138 3833 c7 -3 16 -2 19 1 4 3 -2 6 -13 5 -11 0 -14 -3 -6 -6z"/>
<path d="M4291 3803 c-21 -21 -45 -51 -54 -68 -21 -41 -96 -125 -112 -125 -18
0 -29 54 -17 77 18 32 66 70 105 83 42 13 49 30 13 30 -14 0 -35 4 -48 9 -51
19 -123 -41 -134 -111 -6 -35 -9 -31 84 -118 25 -23 39 -29 55 -24 12 3 22 7
23 8 0 0 16 24 34 51 18 28 51 71 72 97 82 99 65 174 -21 91z"/>
<path d="M1550 3810 l-35 -7 37 -2 c20 0 40 4 43 9 7 11 7 11 -45 0z"/>
<path d="M1090 3775 c0 -19 40 -20 66 0 18 13 16 14 -23 15 -32 0 -43 -4 -43
-15z"/>
<path d="M1045 3740 c-21 -34 35 -81 102 -85 24 -2 52 -10 62 -19 10 -9 30
-16 44 -16 25 0 27 3 21 27 -5 19 -2 30 10 39 24 17 12 22 -95 35 -52 6 -95
15 -97 20 -5 12 -39 11 -47 -1z"/>
<path d="M1316 3735 c7 -17 30 -20 38 -6 3 5 -1 12 -10 15 -25 10 -34 7 -28
-9z"/>
<path d="M4346 3693 c-6 -14 -5 -15 5 -6 7 7 10 15 7 18 -3 3 -9 -2 -12 -12z"/>
<path d="M1380 3690 l-55 -7 52 -1 c28 -1 55 3 58 8 3 6 5 9 3 8 -2 -1 -28 -4
-58 -8z"/>
<path d="M2730 3676 c0 -2 7 -7 16 -10 8 -3 12 -2 9 4 -6 10 -25 14 -25 6z"/>
<path d="M1037 3646 c-4 -10 -1 -13 8 -9 8 3 12 9 9 14 -7 12 -11 11 -17 -5z"/>
<path d="M2540 3629 c-41 -11 -79 -24 -84 -29 -6 -6 7 -28 32 -57 79 -90 96
-121 97 -176 0 -46 -3 -53 -27 -65 -38 -18 -90 -6 -146 34 -26 18 -64 45 -84
60 -21 14 -44 24 -51 21 -21 -8 -51 -186 -42 -245 9 -61 30 -111 50 -118 11
-4 29 6 53 29 49 46 93 68 156 74 63 7 96 -8 96 -42 0 -37 -36 -112 -85 -178
-53 -69 -57 -92 -17 -100 76 -15 201 -19 257 -7 33 7 76 13 95 13 19 0 27 2
18 4 -10 2 -18 10 -18 17 0 7 -25 45 -55 85 -55 73 -69 110 -63 172 3 32 6 34
42 37 54 5 119 -22 176 -73 37 -33 54 -41 73 -38 23 5 27 12 37 75 14 79 6
220 -14 259 -16 31 -59 29 -95 -5 -64 -60 -178 -95 -209 -64 -16 16 -15 71 3
114 8 19 35 61 60 93 25 33 45 64 45 70 0 15 -98 48 -165 55 -44 4 -80 0 -135
-15z"/>
<path d="M879 3581 c-42 -42 -47 -66 -28 -132 11 -36 15 -39 66 -49 71 -15
102 -7 115 30 9 27 19 35 41 31 9 -1 9 5 -6 59 -16 60 -22 68 -64 85 -56 24
-81 19 -124 -24z m93 -36 c46 -34 68 -79 49 -98 -19 -19 -79 2 -111 41 -34 41
-38 66 -12 81 24 15 24 15 74 -24z"/>
<path d="M4370 3603 c-32 -12 -90 -78 -96 -109 -7 -39 26 -94 56 -94 9 0 20
-9 23 -20 15 -59 148 28 163 106 6 33 -7 64 -27 64 -4 0 -17 -20 -28 -44 -13
-30 -33 -53 -61 -71 -40 -25 -43 -26 -61 -9 -10 9 -19 24 -19 33 0 23 85 93
122 100 25 5 27 8 16 23 -14 18 -64 30 -88 21z"/>
<path d="M1140 3581 c0 -15 7 -18 40 -17 45 1 47 3 23 22 -27 20 -63 18 -63
-5z"/>
<path d="M640 3470 c0 -12 52 -60 66 -60 6 0 16 -11 22 -25 7 -15 20 -25 33
-25 19 0 20 -2 8 -16 -11 -14 -28 -15 -116 -9 -79 5 -106 4 -121 -7 -25 -17
-14 -34 46 -71 23 -15 42 -32 42 -37 0 -6 7 -10 16 -10 9 0 38 -22 66 -50 54
-54 65 -59 75 -34 7 19 -43 64 -104 95 -67 33 -55 43 40 34 45 -4 102 -8 127
-9 44 -1 45 0 43 29 -1 18 -12 37 -25 47 -13 10 -32 25 -43 33 -11 9 -35 24
-52 35 -20 12 -33 28 -33 40 0 12 -5 18 -10 15 -6 -3 -22 3 -36 14 -29 23 -44
27 -44 11z"/>
<path d="M2787 3463 c-4 -3 -7 -11 -7 -17 0 -6 5 -5 12 2 6 6 9 14 7 17 -3 3
-9 2 -12 -2z"/>
<path d="M4546 3453 c-6 -14 -5 -15 5 -6 7 7 10 15 7 18 -3 3 -9 -2 -12 -12z"/>
<path d="M670 3400 c0 -5 5 -10 10 -10 6 0 10 5 10 10 0 6 -4 10 -10 10 -5 0
-10 -4 -10 -10z"/>
<path d="M3073 3340 c0 -30 2 -43 4 -27 2 15 2 39 0 55 -2 15 -4 2 -4 -28z"/>
<path d="M4460 3370 c-9 -6 -10 -10 -3 -10 6 0 15 5 18 10 8 12 4 12 -15 0z"/>
<path d="M2753 3340 c1 -16 9 -26 22 -28 18 -3 18 -3 4 10 -9 7 -19 20 -23 28
-3 8 -4 4 -3 -10z"/>
<path d="M2845 3350 c-3 -6 1 -7 9 -4 18 7 21 14 7 14 -6 0 -13 -4 -16 -10z"/>
<path d="M2508 3313 c7 -3 16 -2 19 1 4 3 -2 6 -13 5 -11 0 -14 -3 -6 -6z"/>
<path d="M2202 3285 c0 -16 2 -22 5 -12 2 9 2 23 0 30 -3 6 -5 -1 -5 -18z"/>
<path d="M4855 3242 c-27 -6 -98 -47 -161 -94 -28 -21 -58 -38 -67 -38 -9 0
-24 -12 -33 -26 -16 -24 -16 -26 3 -46 l21 -20 38 26 c21 14 44 26 51 26 8 0
38 20 69 45 34 28 65 45 81 45 15 0 23 3 20 6 -3 4 -3 14 2 23 13 26 -1 57
-24 53z"/>
<path d="M567 3209 c7 -7 15 -10 18 -7 3 3 -2 9 -12 12 -14 6 -15 5 -6 -5z"/>
<path d="M3072 3190 c0 -14 2 -19 5 -12 2 6 2 18 0 25 -3 6 -5 1 -5 -13z"/>
<path d="M4879 3107 c-11 -24 -27 -36 -59 -46 -32 -10 -45 -11 -48 -3 -2 7 -7
12 -12 12 -6 0 5 -47 16 -68 1 -2 16 -6 32 -8 40 -6 96 18 118 51 16 24 16 27
-2 60 -10 19 -21 35 -24 35 -3 0 -12 -15 -21 -33z"/>
<path d="M4565 3110 c-3 -6 1 -7 9 -4 18 7 21 14 7 14 -6 0 -13 -4 -16 -10z"/>
<path d="M727 3089 c7 -7 15 -10 18 -7 3 3 -2 9 -12 12 -14 6 -15 5 -6 -5z"/>
<path d="M2240 3061 c0 -6 4 -13 10 -16 6 -3 7 1 4 9 -7 18 -14 21 -14 7z"/>
<path d="M2527 3033 c-4 -3 -7 -11 -7 -17 0 -6 5 -5 12 2 6 6 9 14 7 17 -3 3
-9 2 -12 -2z"/>
<path d="M4608 3003 c7 -3 16 -2 19 1 4 3 -2 6 -13 5 -11 0 -14 -3 -6 -6z"/>
<path d="M4895 2970 c-16 -7 -17 -9 -3 -9 9 -1 20 4 23 9 7 11 7 11 -20 0z"/>
<path d="M3670 2928 c0 -13 -16 -18 -77 -22 -147 -11 -233 -27 -341 -62 -107
-36 -321 -135 -388 -180 -19 -13 -37 -24 -40 -24 -3 0 -46 -28 -95 -61 -86
-59 -90 -61 -112 -45 -12 9 -47 34 -77 56 -60 44 -195 127 -250 154 -66 33
-235 95 -312 115 -118 32 -251 43 -435 39 l-168 -4 -90 -38 c-243 -105 -374
-272 -391 -500 -8 -103 7 -181 51 -273 47 -101 86 -155 179 -252 86 -88 248
-204 379 -268 151 -75 488 -183 632 -204 38 -5 78 -12 88 -15 43 -13 6 35 -48
62 -22 11 -89 49 -150 83 -380 218 -583 403 -666 606 -21 53 -24 75 -24 190 0
127 1 132 34 203 58 122 181 222 322 258 96 25 253 23 359 -5 143 -38 208 -61
282 -102 39 -21 72 -39 74 -39 2 0 28 -16 58 -35 30 -19 59 -35 63 -35 5 0 29
-19 55 -42 36 -34 55 -44 86 -46 22 -1 43 2 46 7 3 5 -3 7 -14 4 -30 -8 -24
14 8 31 15 8 58 35 97 60 148 98 343 182 475 207 36 6 112 12 170 12 85 1 117
-4 170 -22 252 -90 351 -218 350 -455 -1 -140 -45 -252 -148 -381 -75 -92
-122 -133 -317 -272 -61 -43 -320 -203 -391 -241 -35 -19 -91 -72 -75 -72 32
0 307 73 436 115 335 111 649 314 790 510 98 138 139 249 138 375 -1 148 -50
265 -157 378 -75 79 -146 125 -241 159 -81 28 -113 34 -225 42 -62 4 -95 10
-95 18 0 6 -3 15 -7 19 -5 4 -8 0 -8 -8z"/>
<path d="M450 2916 c0 -2 7 -7 16 -10 8 -3 12 -2 9 4 -6 10 -25 14 -25 6z"/>
<path d="M1338 2913 c7 -3 16 -2 19 1 4 3 -2 6 -13 5 -11 0 -14 -3 -6 -6z"/>
<path d="M1730 2914 c59 -7 188 -8 183 -2 -2 5 -50 7 -106 7 -56 -1 -91 -3
-77 -5z"/>
<path d="M2445 2909 c-4 -6 -5 -12 -2 -15 2 -3 7 2 10 11 7 17 1 20 -8 4z"/>
<path d="M3775 2914 c45 -7 183 -9 178 -2 -2 5 -48 7 -101 7 -53 -1 -88 -3
-77 -5z"/>
<path d="M4880 2905 c0 -8 3 -15 8 -15 8 0 42 -57 42 -71 0 -12 -101 -60 -130
-62 -16 -1 -20 -8 -20 -34 0 -43 16 -49 84 -29 52 16 136 78 136 102 0 5 -20
31 -45 58 -25 27 -45 53 -45 58 0 4 -7 8 -15 8 -8 0 -15 -7 -15 -15z"/>
<path d="M377 2868 c-14 -12 -28 -33 -32 -45 -5 -19 -2 -23 14 -23 11 0 23 5
26 10 9 15 41 12 54 -4 7 -8 26 -18 42 -21 26 -6 59 -38 59 -57 0 -15 -61 -8
-101 13 -44 22 -55 20 -45 -8 5 -13 9 -14 15 -5 5 9 13 5 28 -12 12 -13 19
-26 17 -29 -3 -3 7 -14 23 -26 l27 -22 18 23 c10 13 23 39 29 58 6 19 17 42
24 50 29 35 26 50 -13 66 -20 9 -50 22 -67 30 -59 27 -90 28 -118 2z"/>
<path d="M4773 2876 c-13 -6 -23 -19 -23 -29 0 -10 -7 -20 -15 -23 -9 -4 -15
-17 -14 -33 1 -17 3 -20 6 -8 5 20 8 21 32 5 15 -9 22 -8 36 5 9 9 27 17 41
17 14 0 27 7 31 15 9 25 -5 30 -28 9 l-22 -19 5 32 c3 22 0 34 -10 38 -7 3
-14 4 -15 4 -1 -1 -12 -6 -24 -13z"/>
<path d="M2011 2876 c11 -9 69 -15 64 -6 -3 6 -20 10 -37 10 -17 0 -29 -2 -27
-4z"/>
<path d="M4045 2870 c28 -12 37 -12 30 0 -3 6 -16 10 -28 9 -21 0 -21 -1 -2
-9z"/>
<path d="M4725 2869 c-4 -6 -5 -12 -2 -15 2 -3 7 2 10 11 7 17 1 20 -8 4z"/>
<path d="M4130 2836 c0 -2 7 -7 16 -10 8 -3 12 -2 9 4 -6 10 -25 14 -25 6z"/>
<path d="M2687 2803 c18 -2 50 -2 70 0 21 2 7 4 -32 4 -38 0 -55 -2 -38 -4z"/>
<path d="M1085 2790 c-3 -6 1 -7 9 -4 18 7 21 14 7 14 -6 0 -13 -4 -16 -10z"/>
<path d="M2230 2796 c0 -2 11 -6 25 -8 13 -3 22 -1 19 3 -5 9 -44 13 -44 5z"/>
<path d="M340 2781 c0 -5 5 -13 10 -16 6 -3 10 -2 10 4 0 5 -4 13 -10 16 -5 3
-10 2 -10 -4z"/>
<path d="M320 2748 c0 -9 5 -20 10 -23 13 -8 13 5 0 25 -8 13 -10 13 -10 -2z"/>
<path d="M2330 2756 c0 -2 7 -7 16 -10 8 -3 12 -2 9 4 -6 10 -25 14 -25 6z"/>
<path d="M2415 2710 c3 -5 11 -10 16 -10 6 0 7 5 4 10 -3 6 -11 10 -16 10 -6
0 -7 -4 -4 -10z"/>
<path d="M2885 2710 c-3 -6 1 -7 9 -4 18 7 21 14 7 14 -6 0 -13 -4 -16 -10z"/>
<path d="M1610 2690 c-13 -8 -13 -10 2 -10 9 0 20 5 23 10 8 13 -5 13 -25 0z"/>
<path d="M3160 2690 l-35 -7 32 -2 c17 0 35 4 38 9 3 6 5 9 3 9 -2 -1 -19 -5
-38 -9z"/>
<path d="M218 2673 c7 -3 16 -2 19 1 4 3 -2 6 -13 5 -11 0 -14 -3 -6 -6z"/>
<path d="M250 2676 c0 -2 14 -6 30 -8 17 -3 30 -1 30 4 0 4 -13 8 -30 8 -16 0
-30 -2 -30 -4z"/>
<path d="M546 2664 c-4 -9 -4 -19 -1 -22 2 -3 7 3 11 12 4 9 4 19 1 22 -2 3
-7 -3 -11 -12z"/>
<path d="M965 2669 c-4 -6 -5 -12 -2 -15 2 -3 7 2 10 11 7 17 1 20 -8 4z"/>
<path d="M2805 2670 c-3 -5 -2 -10 4 -10 5 0 13 5 16 10 3 6 2 10 -4 10 -5 0
-13 -4 -16 -10z"/>
<path d="M440 2660 c0 -5 5 -10 11 -10 5 0 7 5 4 10 -3 6 -8 10 -11 10 -2 0
-4 -4 -4 -10z"/>
<path d="M4980 2646 c-96 -29 -127 -49 -139 -94 -17 -59 2 -67 56 -26 52 39
102 57 145 50 35 -6 38 -4 45 21 9 33 5 55 -10 65 -15 10 -9 11 -97 -16z"/>
<path d="M5113 2625 c0 -27 2 -38 4 -22 2 15 2 37 0 50 -2 12 -4 0 -4 -28z"/>
<path d="M196 2644 c-4 -11 0 -24 11 -35 20 -19 142 -69 168 -69 22 0 58 -20
69 -38 6 -11 14 -5 33 28 15 25 22 45 16 51 -9 9 -131 43 -213 59 -25 5 -52
11 -61 15 -10 4 -19 0 -23 -11z"/>
<path d="M2207 2649 c7 -7 15 -10 18 -7 3 3 -2 9 -12 12 -14 6 -15 5 -6 -5z"/>
<path d="M3050 2650 c-13 -8 -13 -10 2 -10 9 0 20 5 23 10 8 13 -5 13 -25 0z"/>
<path d="M3727 2649 c7 -7 15 -10 18 -7 3 3 -2 9 -12 12 -14 6 -15 5 -6 -5z"/>
<path d="M2530 2636 c0 -2 7 -7 16 -10 8 -3 12 -2 9 4 -6 10 -25 14 -25 6z"/>
<path d="M4340 2631 c0 -5 5 -13 10 -16 6 -3 10 -2 10 4 0 5 -4 13 -10 16 -5
3 -10 2 -10 -4z"/>
<path d="M160 2621 c0 -6 4 -13 10 -16 6 -3 7 1 4 9 -7 18 -14 21 -14 7z"/>
<path d="M2965 2610 c-3 -5 1 -10 9 -10 8 0 18 5 21 10 3 6 -1 10 -9 10 -8 0
-18 -4 -21 -10z"/>
<path d="M2365 2570 c3 -5 11 -10 16 -10 6 0 7 5 4 10 -3 6 -11 10 -16 10 -6
0 -7 -4 -4 -10z"/>
<path d="M2890 2570 c-13 -8 -13 -10 2 -10 9 0 20 5 23 10 8 13 -5 13 -25 0z"/>
<path d="M2630 2549 c0 -5 5 -7 10 -4 6 3 10 8 10 11 0 2 -4 4 -10 4 -5 0 -10
-5 -10 -11z"/>
<path d="M4387 2539 c4 -13 8 -18 11 -10 2 7 -1 18 -6 23 -8 8 -9 4 -5 -13z"/>
<path d="M5072 2540 c0 -14 2 -19 5 -12 2 6 2 18 0 25 -3 6 -5 1 -5 -13z"/>
<path d="M507 2516 c-5 -15 -6 -31 -3 -34 8 -8 18 25 14 45 -3 13 -6 10 -11
-11z"/>
<path d="M2447 2529 c7 -7 15 -10 18 -7 3 3 -2 9 -12 12 -14 6 -15 5 -6 -5z"/>
<path d="M258 2523 c7 -3 16 -2 19 1 4 3 -2 6 -13 5 -11 0 -14 -3 -6 -6z"/>
<path d="M884 2505 c-3 -8 -4 -20 -2 -27 3 -7 7 -1 10 15 6 29 1 36 -8 12z"/>
<path d="M3880 2508 c0 -9 5 -20 10 -23 13 -8 13 5 0 25 -8 13 -10 13 -10 -2z"/>
<path d="M2770 2490 c-13 -8 -13 -10 2 -10 9 0 20 5 23 10 8 13 -5 13 -25 0z"/>
<path d="M1387 2463 c-4 -3 -7 -11 -7 -17 0 -6 5 -5 12 2 6 6 9 14 7 17 -3 3
-9 2 -12 -2z"/>
<path d="M5078 2465 c-3 -4 -47 -15 -98 -25 -51 -11 -97 -23 -102 -28 -4 -4
-2 -20 4 -35 12 -24 17 -26 48 -20 19 4 49 7 67 7 18 0 30 3 27 8 -9 14 26 21
41 8 8 -7 15 -25 15 -40 0 -26 33 -81 43 -70 2 3 -1 44 -7 92 -10 80 -24 117
-38 103z"/>
<path d="M213 2447 c-3 -4 -2 -18 1 -30 4 -18 17 -25 73 -35 37 -7 82 -21 99
-31 l31 -18 11 31 c20 55 16 76 -15 77 -16 0 -65 4 -111 8 -46 3 -86 3 -89 -2z"/>
<path d="M2567 2449 c7 -7 15 -10 18 -7 3 3 -2 9 -12 12 -14 6 -15 5 -6 -5z"/>
<path d="M4433 2370 c0 -36 2 -50 4 -32 2 17 2 47 0 65 -2 17 -4 3 -4 -33z"/>
<path d="M5152 2405 c0 -16 2 -22 5 -12 2 9 2 23 0 30 -3 6 -5 -1 -5 -18z"/>
<path d="M472 2390 c0 -14 2 -19 5 -12 2 6 2 18 0 25 -3 6 -5 1 -5 -13z"/>
<path d="M1353 2285 c0 -38 2 -53 4 -32 2 20 2 52 0 70 -2 17 -4 1 -4 -38z"/>
<path d="M188 2319 c-28 -16 -21 -32 20 -52 43 -20 146 -39 168 -30 14 5 44
53 44 70 0 4 -30 8 -67 8 -38 0 -86 3 -108 7 -23 4 -48 3 -57 -3z"/>
<path d="M4908 2323 c12 -2 30 -2 40 0 9 3 -1 5 -23 4 -22 0 -30 -2 -17 -4z"/>
<path d="M5041 2304 c0 -11 3 -14 6 -6 3 7 2 16 -1 19 -3 4 -6 -2 -5 -13z"/>
<path d="M5151 2304 c0 -11 3 -14 6 -6 3 7 2 16 -1 19 -3 4 -6 -2 -5 -13z"/>
<path d="M427 2261 c-4 -17 -3 -21 5 -13 5 5 8 16 6 23 -3 8 -7 3 -11 -10z"/>
<path d="M4430 2243 c-3 -23 -2 -39 3 -34 5 5 7 24 5 42 -3 33 -4 33 -8 -8z"/>
<path d="M168 2248 c6 -6 18 -8 28 -6 14 3 12 5 -9 10 -19 3 -25 2 -19 -4z"/>
<path d="M5031 2224 c-51 -16 -67 -28 -87 -66 -11 -20 -12 -33 -5 -46 6 -9 11
-12 11 -4 0 6 7 12 15 12 8 0 15 4 15 9 0 5 25 15 55 22 85 19 127 -7 91 -57
-12 -16 -26 -19 -95 -18 -73 1 -79 -1 -71 -17 19 -34 62 -59 101 -59 22 0 39
-4 39 -10 0 -5 5 -10 11 -10 5 0 7 5 4 10 -4 6 10 29 29 52 35 41 46 81 26 93
-5 3 -10 15 -10 25 0 15 -69 82 -81 79 -2 -1 -24 -7 -48 -15z"/>
<path d="M173 2142 c-21 -3 -23 -9 -24 -60 -2 -101 -5 -95 67 -146 15 -10 45
-19 68 -20 58 -1 81 24 81 89 l0 50 54 0 c50 0 55 2 64 28 17 53 11 56 -145
59 -79 2 -153 2 -165 0z m146 -81 c9 -6 11 -18 6 -39 -6 -31 -8 -31 -53 -26
-77 9 -92 14 -92 29 0 8 -4 15 -10 15 -5 0 -10 7 -10 15 0 12 15 15 73 15 39
0 78 -4 86 -9z"/>
<path d="M880 2141 c0 -6 4 -13 10 -16 6 -3 7 1 4 9 -7 18 -14 21 -14 7z"/>
<path d="M1380 2113 c0 -4 5 -15 10 -23 8 -13 10 -13 10 2 0 9 -4 20 -10 23
-5 3 -10 3 -10 -2z"/>
<path d="M4387 2101 c-4 -17 -3 -21 5 -13 5 5 8 16 6 23 -3 8 -7 3 -11 -10z"/>
<path d="M511 2064 c0 -11 3 -14 6 -6 3 7 2 16 -1 19 -3 4 -6 -2 -5 -13z"/>
<path d="M3887 2073 c-4 -3 -7 -11 -7 -17 0 -6 5 -5 12 2 6 6 9 14 7 17 -3 3
-9 2 -12 -2z"/>
<path d="M1420 2033 c0 -4 5 -15 10 -23 8 -13 10 -13 10 2 0 9 -4 20 -10 23
-5 3 -10 3 -10 -2z"/>
<path d="M920 2021 c0 -5 5 -13 10 -16 6 -3 10 -2 10 4 0 5 -4 13 -10 16 -5 3
-10 2 -10 -4z"/>
<path d="M4346 2013 c-6 -14 -5 -15 5 -6 7 7 10 15 7 18 -3 3 -9 -2 -12 -12z"/>
<path d="M3805 1949 c-4 -6 -5 -12 -2 -15 2 -3 7 2 10 11 7 17 1 20 -8 4z"/>
<path d="M4999 1902 c-40 -36 -59 -88 -43 -120 l11 -23 12 30 c20 48 57 76 99
74 53 -1 92 -19 92 -42 0 -21 -23 -45 -33 -34 -4 3 -7 -3 -7 -15 0 -11 5 -24
10 -27 6 -3 10 0 10 8 0 8 10 13 23 13 18 -1 22 5 25 36 9 105 -121 170 -199
100z"/>
<path d="M1000 1901 c0 -5 5 -13 10 -16 6 -3 10 -2 10 4 0 5 -4 13 -10 16 -5
3 -10 2 -10 -4z"/>
<path d="M195 1847 c-38 -18 -51 -34 -60 -74 -8 -39 -7 -39 41 -11 25 15 51
21 87 20 59 -1 70 -9 65 -48 -3 -28 -5 -29 -66 -32 -73 -3 -157 22 -148 45 7
17 -2 17 -19 -1 -12 -12 -10 -16 15 -26 17 -7 39 -27 50 -46 26 -40 45 -47
113 -39 86 11 93 22 89 130 -2 40 -7 54 -27 68 -33 24 -103 31 -140 14z"/>
<path d="M7 1793 c7 -2 19 -2 26 0 6 3 1 5 -13 5 -14 0 -19 -2 -13 -5z"/>
<path d="M3645 1790 c-3 -5 -2 -10 4 -10 5 0 13 5 16 10 3 6 2 10 -4 10 -5 0
-13 -4 -16 -10z"/>
<path d="M48 1753 c6 -2 18 -2 25 0 6 3 1 5 -13 5 -14 0 -19 -2 -12 -5z"/>
<path d="M5011 1744 c0 -11 3 -14 6 -6 3 7 2 16 -1 19 -3 4 -6 -2 -5 -13z"/>
<path d="M1730 1716 c0 -2 7 -7 16 -10 8 -3 12 -2 9 4 -6 10 -25 14 -25 6z"/>
<path d="M5186 1678 c-12 -6 -57 -9 -123 -6 -114 5 -126 0 -105 -48 11 -23 14
-24 131 -24 95 0 120 3 124 15 4 8 1 17 -4 21 -6 3 -8 17 -5 30 7 27 7 27 -18
12z"/>
<path d="M3485 1670 c-3 -5 -2 -10 4 -10 5 0 13 5 16 10 3 6 2 10 -4 10 -5 0
-13 -4 -16 -10z"/>
<path d="M1285 1650 c3 -5 11 -10 16 -10 6 0 7 5 4 10 -3 6 -11 10 -16 10 -6
0 -7 -4 -4 -10z"/>
<path d="M1850 1636 c0 -2 7 -7 16 -10 8 -3 12 -2 9 4 -6 10 -25 14 -25 6z"/>
<path d="M5247 1626 c-14 -11 -16 -19 -7 -40 5 -14 12 -26 15 -26 4 0 3 5 0
10 -4 6 -1 17 5 25 6 8 10 21 8 29 -2 12 -6 13 -21 2z"/>
<path d="M3930 1610 c-13 -8 -13 -10 2 -10 9 0 20 5 23 10 8 13 -5 13 -25 0z"/>
<path d="M237 1603 c-10 -9 -9 -83 1 -83 4 0 7 20 7 45 0 25 0 45 -1 45 0 0
-4 -3 -7 -7z"/>
<path d="M273 1603 c9 -2 23 -2 30 0 6 3 -1 5 -18 5 -16 0 -22 -2 -12 -5z"/>
<path d="M168 1575 c-8 -18 -8 -35 -1 -60 6 -20 7 -35 2 -35 -17 0 -9 -50 10
-69 19 -19 61 -19 61 0 0 5 34 9 75 9 63 0 76 3 85 19 5 11 7 27 4 36 -6 15
-20 17 -103 14 l-96 -4 -3 58 c-3 61 -15 73 -34 32z"/>
<path d="M3365 1590 c-3 -5 -2 -10 4 -10 5 0 13 5 16 10 3 6 2 10 -4 10 -5 0
-13 -4 -16 -10z"/>
<path d="M1407 1569 c7 -7 15 -10 18 -7 3 3 -2 9 -12 12 -14 6 -15 5 -6 -5z"/>
<path d="M3855 1570 c-16 -7 -17 -9 -3 -9 9 -1 20 4 23 9 7 11 7 11 -20 0z"/>
<path d="M5300 1570 c-9 -6 -10 -10 -3 -10 6 0 15 5 18 10 8 12 4 12 -15 0z"/>
<path d="M1970 1556 c0 -2 7 -7 16 -10 8 -3 12 -2 9 4 -6 10 -25 14 -25 6z"/>
<path d="M4990 1541 c0 -11 -9 -22 -19 -26 -19 -6 -39 -60 -27 -72 3 -3 42 -9
87 -13 81 -7 102 -18 96 -50 -3 -17 -55 -20 -144 -8 l-53 7 0 -33 c0 -33 1
-33 53 -40 105 -12 155 -8 167 15 7 11 9 28 5 36 -3 9 2 38 11 65 24 73 19 78
-79 78 -46 0 -86 3 -90 6 -3 3 -2 17 3 30 6 15 6 24 0 24 -6 0 -10 -9 -10 -19z"/>
<path d="M3780 1530 c-9 -6 -10 -10 -3 -10 6 0 15 5 18 10 8 12 4 12 -15 0z"/>
<path d="M368 1513 c7 -3 16 -2 19 1 4 3 -2 6 -13 5 -11 0 -14 -3 -6 -6z"/>
<path d="M2050 1510 c20 -13 33 -13 25 0 -3 6 -14 10 -23 10 -15 0 -15 -2 -2
-10z"/>
<path d="M3700 1490 c-9 -6 -10 -10 -3 -10 6 0 15 5 18 10 8 12 4 12 -15 0z"/>
<path d="M3165 1470 c-3 -5 -2 -10 4 -10 5 0 13 5 16 10 3 6 2 10 -4 10 -5 0
-13 -4 -16 -10z"/>
<path d="M1500 1448 c0 -6 22 -71 50 -144 27 -72 56 -160 65 -195 19 -81 20
-198 2 -205 -14 -5 -20 -41 -9 -47 8 -5 336 16 508 33 164 16 1128 10 1145 -7
6 -6 18 -9 26 -6 8 3 94 0 191 -8 105 -8 165 -15 147 -19 -28 -6 -28 -7 12
-11 30 -3 44 -1 48 9 4 11 8 12 20 2 13 -11 15 1 13 96 l-2 109 -3 -92 c-4
-103 -18 -122 -28 -39 -9 72 10 208 50 362 18 69 31 132 29 139 -6 13 -20 9
-219 -67 -93 -36 -166 -60 -365 -121 -232 -71 -242 -72 -505 -71 -153 1 -256
5 -285 13 -25 7 -65 17 -90 22 -43 9 -61 14 -195 57 -33 11 -168 59 -300 107
-236 86 -305 104 -305 83z m2059 -353 c34 -39 41 -84 16 -105 -20 -17 -23 -13
-30 40 -5 45 -11 57 -21 47 -3 -3 -1 -29 5 -57 6 -28 9 -56 5 -61 -9 -15 -53
-10 -72 9 -10 10 -26 21 -35 25 -12 4 -17 18 -17 42 0 31 5 39 47 65 26 17 52
30 59 30 7 0 26 -16 43 -35z"/>
<path d="M3457 1074 c-10 -11 -9 -54 2 -54 14 0 22 30 13 46 -4 8 -11 11 -15
8z"/>
<path d="M3476 991 c-4 -7 -5 -15 -2 -18 9 -9 19 4 14 18 -4 11 -6 11 -12 0z"/>
<path d="M3595 1450 c-18 -8 -17 -9 7 -9 15 -1 30 4 33 9 7 12 -12 12 -40 0z"/>
<path d="M3490 1410 c-13 -8 -13 -10 2 -10 9 0 20 5 23 10 8 13 -5 13 -25 0z"/>
<path d="M378 1403 c7 -3 16 -2 19 1 4 3 -2 6 -13 5 -11 0 -14 -3 -6 -6z"/>
<path d="M3788 1387 c-3 -19 -2 -25 4 -19 6 6 8 18 6 28 -3 14 -5 12 -10 -9z"/>
<path d="M1480 1386 c0 -8 4 -17 9 -20 5 -4 7 3 4 14 -6 23 -13 26 -13 6z"/>
<path d="M167 1369 c7 -7 15 -10 18 -7 3 3 -2 9 -12 12 -14 6 -15 5 -6 -5z"/>
<path d="M3365 1370 c-19 -8 -19 -9 2 -9 12 -1 25 4 28 9 7 12 -2 12 -30 0z"/>
<path d="M3185 1330 l-30 -8 37 -1 c20 0 40 4 43 9 7 11 -6 11 -50 0z"/>
<path d="M297 1321 c-104 -21 -126 -93 -55 -178 29 -34 36 -37 55 -28 21 11
21 11 -6 23 -30 13 -71 48 -71 61 0 19 80 51 128 51 55 0 75 15 70 52 -2 19
-9 23 -43 25 -22 0 -57 -2 -78 -6z"/>
<path d="M1521 1273 c-1 -12 4 -25 9 -28 12 -7 12 2 0 30 -8 19 -9 19 -9 -2z"/>
<path d="M4910 1274 c0 -12 3 -14 13 -6 7 6 30 12 52 15 36 3 35 4 -12 5 -43
2 -53 -1 -53 -14z"/>
<path d="M2168 1273 c7 -3 16 -2 19 1 4 3 -2 6 -13 5 -11 0 -14 -3 -6 -6z"/>
<path d="M3178 1273 c6 -2 18 -2 25 0 6 3 1 5 -13 5 -14 0 -19 -2 -12 -5z"/>
<path d="M3752 1258 c-1 -14 -5 -35 -8 -45 -5 -14 -4 -15 5 -7 7 7 11 26 8 45
-3 28 -4 29 -5 7z"/>
<path d="M2318 1233 c6 -2 18 -2 25 0 6 3 1 5 -13 5 -14 0 -19 -2 -12 -5z"/>
<path d="M4998 1233 c6 -2 18 -2 25 0 6 3 1 5 -13 5 -14 0 -19 -2 -12 -5z"/>
<path d="M403 1215 c-16 -11 -34 -14 -65 -9 l-43 7 20 -24 c38 -45 44 -49 68
-49 27 0 41 14 49 46 9 34 -4 46 -29 29z"/>
<path d="M4841 1214 c0 -11 3 -14 6 -6 3 7 2 16 -1 19 -3 4 -6 -2 -5 -13z"/>
<path d="M4889 1208 c-22 -41 -9 -51 101 -74 58 -13 111 -23 117 -23 17 -1 10
41 -8 50 -46 22 -92 39 -107 39 -9 1 -34 7 -55 14 -34 13 -38 12 -48 -6z"/>
<path d="M1560 1151 c0 -11 4 -22 9 -25 4 -3 6 6 3 19 -5 30 -12 33 -12 6z"/>
<path d="M5148 1140 c-15 -16 -15 -19 -1 -24 12 -5 13 -9 3 -21 -10 -13 -9
-15 12 -15 21 0 24 5 26 40 3 44 -11 51 -40 20z"/>
<path d="M200 1141 c0 -6 4 -13 10 -16 6 -3 7 1 4 9 -7 18 -14 21 -14 7z"/>
<path d="M5005 1090 c3 -6 20 -10 37 -10 38 0 34 5 -10 13 -21 4 -31 3 -27 -3z"/>
<path d="M4858 1040 c-10 -6 -18 -19 -18 -28 0 -10 -5 -23 -11 -29 -17 -17
-16 -88 1 -108 20 -24 72 -45 111 -45 22 0 41 10 65 34 29 29 34 41 34 79 0
70 -30 100 -106 104 -32 2 -67 -1 -76 -7z m107 -67 c27 -13 35 -23 35 -44 0
-51 -85 -51 -141 0 -28 26 -29 29 -14 45 21 21 75 21 120 -1z"/>
<path d="M231 1010 c-30 -28 -33 -34 -27 -73 5 -35 10 -62 15 -87 1 -3 11 -16
21 -29 l20 -24 63 22 c34 12 71 26 82 31 11 6 42 14 69 20 51 11 82 28 80 45
-2 24 -17 45 -31 45 -20 0 -105 -27 -164 -52 -61 -26 -108 -28 -123 -5 -9 15
-6 22 18 44 29 24 50 26 98 8 13 -5 15 -2 11 17 -19 75 -74 90 -132 38z"/>
<path d="M382 1020 c14 -22 24 -19 15 5 -4 8 -11 15 -17 15 -6 0 -6 -7 2 -20z"/>
<path d="M4801 1014 c0 -11 3 -14 6 -6 3 7 2 16 -1 19 -3 4 -6 -2 -5 -13z"/>
<path d="M1560 861 c0 -6 4 -13 10 -16 6 -3 7 1 4 9 -7 18 -14 21 -14 7z"/>
<path d="M530 850 c-23 -7 -23 -8 -3 -9 12 -1 25 4 28 9 3 6 5 10 3 9 -2 -1
-14 -5 -28 -9z"/>
<path d="M1640 840 c0 -5 7 -7 15 -4 8 4 15 8 15 10 0 2 -7 4 -15 4 -8 0 -15
-4 -15 -10z"/>
<path d="M368 803 c7 -3 16 -2 19 1 4 3 -2 6 -13 5 -11 0 -14 -3 -6 -6z"/>
<path d="M275 770 l-30 -8 32 -1 c17 0 35 4 38 9 7 11 3 11 -40 0z"/>
<path d="M3166 485 c-3 -9 -6 -62 -6 -117 0 -89 2 -99 18 -96 19 4 30 63 28
163 -1 47 -5 60 -17 63 -9 2 -19 -4 -23 -13z"/>
<path d="M3683 493 c-9 -3 -13 -36 -13 -113 0 -99 2 -108 20 -113 11 -3 22 -1
25 4 4 5 7 57 8 116 2 111 -2 122 -40 106z"/>
<path d="M1531 469 c-12 -13 -21 -26 -21 -30 0 -14 18 -19 24 -7 3 7 4 -7 1
-32 -3 -25 -7 -58 -9 -75 -4 -35 9 -55 35 -55 16 0 17 10 16 107 -2 115 -10
130 -46 92z"/>
<path d="M1647 484 c-4 -4 -4 -40 0 -80 5 -59 3 -78 -11 -99 l-16 -25 32 0
c50 0 60 10 48 51 -6 18 -8 56 -4 82 4 31 2 53 -6 62 -13 16 -32 19 -43 9z"/>
<path d="M1755 480 c-4 -6 -5 -48 -4 -93 2 -45 0 -88 -5 -95 -5 -9 6 -12 43
-12 55 0 59 3 35 27 -13 13 -15 33 -12 97 l3 81 -27 3 c-14 2 -29 -2 -33 -8z"/>
<path d="M1894 476 c-8 -20 0 -186 10 -208 7 -15 0 -17 -46 -21 l-53 -3 52 -2
c68 -3 73 8 76 140 2 91 0 103 -16 106 -9 2 -20 -4 -23 -12z"/>
<path d="M2007 483 c-11 -10 -8 -201 3 -208 6 -3 18 -4 28 0 16 5 19 18 20 96
1 49 4 94 7 98 2 5 -5 11 -18 15 -28 7 -32 7 -40 -1z"/>
<path d="M2250 476 c-14 -14 -13 -203 2 -212 20 -13 37 27 36 85 -1 91 5 101
62 101 66 0 83 -24 78 -109 -1 -33 0 -63 5 -67 13 -13 8 -23 -15 -27 -13 -2
-3 -4 22 -4 25 -1 36 2 26 4 -14 4 -16 7 -6 13 9 5 15 38 18 92 5 94 14 112
52 105 14 -3 32 -2 39 2 13 8 -92 28 -114 22 -28 -8 -80 -8 -134 -2 -38 5 -65
3 -71 -3z"/>
<path d="M2601 476 c-8 -10 -10 -38 -6 -93 9 -115 11 -121 37 -116 22 4 23 8
23 111 0 100 -2 107 -21 110 -11 2 -26 -4 -33 -12z"/>
<path d="M2803 478 c-29 -46 -92 -203 -84 -211 5 -5 23 -6 40 -2 22 5 31 12
31 26 0 11 9 37 20 58 27 54 50 123 44 133 -8 12 -42 10 -51 -4z"/>
<path d="M2996 482 c-3 -5 -10 -29 -15 -54 -6 -26 -21 -62 -33 -81 -19 -29
-30 -36 -62 -39 -60 -5 -59 -28 1 -28 45 0 52 4 92 45 24 25 45 44 47 43 2 -2
5 -19 7 -38 5 -48 21 -75 41 -67 9 4 19 14 23 23 6 16 -30 98 -48 109 -5 4 -9
26 -9 51 0 37 -3 44 -19 44 -11 0 -22 -4 -25 -8z"/>
<path d="M3763 430 c1 -33 7 -60 12 -60 20 1 53 35 59 62 6 25 2 29 -30 43
-20 8 -38 15 -39 15 -2 0 -3 -27 -2 -60z"/>
<path d="M2085 470 c4 -6 11 -8 16 -5 14 9 11 15 -7 15 -8 0 -12 -5 -9 -10z"/>
<path d="M2140 467 c-20 -10 -27 -24 -34 -65 -12 -69 1 -114 37 -126 32 -12
46 -1 29 22 -28 40 -31 60 -16 106 21 62 17 79 -16 63z"/>
<path d="M3481 449 c-17 -49 -14 -57 29 -79 46 -24 58 -44 41 -71 -10 -17 -8
-19 24 -19 24 0 38 5 42 16 7 20 -20 69 -59 106 -15 14 -28 35 -28 46 0 16
-17 32 -35 32 -2 0 -8 -14 -14 -31z"/>
<path d="M3575 465 c17 -7 34 -10 39 -7 12 7 -21 21 -49 20 -15 0 -13 -3 10
-13z"/>
<path d="M2695 461 c3 -5 19 -8 36 -6 48 6 48 15 0 15 -23 0 -40 -4 -36 -9z"/>
<path d="M3070 420 c0 -11 4 -20 9 -20 5 0 7 9 4 20 -3 11 -7 20 -9 20 -2 0
-4 -9 -4 -20z"/>
<path d="M3400 400 l-35 -7 38 -2 c20 0 37 4 37 9 0 6 -1 9 -2 9 -2 -1 -19 -5
-38 -9z"/>
<path d="M1615 387 c-4 -10 -5 -21 -1 -24 10 -10 18 4 13 24 -4 17 -4 17 -12
0z"/>
<path d="M2312 345 c0 -16 2 -22 5 -12 2 9 2 23 0 30 -3 6 -5 -1 -5 -18z"/>
<path d="M3328 329 c-10 -5 -18 -18 -18 -27 1 -16 1 -16 11 1 7 13 23 17 62
17 37 0 48 3 37 10 -20 13 -70 12 -92 -1z"/>
<path d="M3240 315 c0 -9 6 -12 15 -9 8 4 15 7 15 9 0 2 -7 5 -15 9 -9 3 -15
0 -15 -9z"/>
<path d="M2312 290 c0 -14 2 -19 5 -12 2 6 2 18 0 25 -3 6 -5 1 -5 -13z"/>
<path d="M3750 262 c0 -8 -19 -11 -55 -11 -31 1 -59 -1 -62 -5 -3 -3 21 -6 55
-6 55 0 84 12 68 27 -3 4 -6 1 -6 -5z"/>
<path d="M2140 249 c-20 -4 9 -7 70 -7 58 0 101 1 95 3 -21 7 -132 10 -165 4z"/>
<path d="M1573 243 c26 -2 68 -2 95 0 26 2 4 3 -48 3 -52 0 -74 -1 -47 -3z"/>
<path d="M1998 243 c18 -2 45 -2 60 0 15 2 0 4 -33 4 -33 0 -45 -2 -27 -4z"/>
<path d="M2628 243 c7 -3 16 -2 19 1 4 3 -2 6 -13 5 -11 0 -14 -3 -6 -6z"/>
<path d="M2723 243 c9 -2 23 -2 30 0 6 3 -1 5 -18 5 -16 0 -22 -2 -12 -5z"/>
<path d="M2913 243 c76 -2 198 -2 270 0 73 1 11 3 -138 3 -148 0 -208 -2 -132
-3z"/>
<path d="M3488 243 c23 -2 59 -2 80 0 20 2 1 4 -43 4 -44 0 -61 -2 -37 -4z"/>
</g>
</svg>
